<?xml version="1.0" encoding="UTF-8"?>
<svg viewBox="0 0 744.09448819 1052.3622047" xmlns="http://www.w3.org/2000/svg">
 <defs>
  <filter id="b" x="-.05165" y="-.31365" width="1.1033" height="1.6273">
   <feGaussianBlur stdDeviation="2.8592"/>
  </filter>
  <filter id="a" x="-.06738" y="-.88436" width="1.1348" height="2.7687">
   <feGaussianBlur stdDeviation="2.1151"/>
  </filter>
 </defs>
 <path d="m228.57 416.65c-58.834-1.3646-113.38 27.276-168.57 51.429-7.9591 13.586-25.411 28.528-8.5714 38.571 37.143 35.221 74.286 50.139 111.43 62.857l37.143-52.857-48.571-25.714 75.714-35.714z" fill="#d7a647" stroke="#000"/>
 <path d="m391.43 476.65c11.429 34.296 22.857 59.501 34.286 78.571 30.386 5.3875 61.037 10.616 72.857 27.143l-47.143 42.857c-82.326-23.344-133.8-52.859-140-91.429z" fill="#d7a647" stroke="#000"/>
 <path d="m107.86 914.51c-34.638 4.0402-72.422 11.463-88.571 32.143l234.29 0.71429-30.714-31.429z" fill="#0c0d0f" stroke="#000"/>
 <path d="m407.88 912.7c26.162-4.4359 72.79 14.862 89.077 35.678l-229.23 0.71429c7.7609-13.263 12.771-29.621 30.714-31.429z" fill="#0c0d0f" stroke="#000"/>
 <path transform="matrix(1.2884 .09663 -.16137 2.1515 530.27 -771.53)" d="m-41.727 793.72c6.9429-5.6863 49.881-4.7527 75.341-4.5457l-7.8554 5.5558c-19.043-2.6741-48.442-2.2256-67.485-1.0102z" fill="#e6e6e6" filter="url(#a)" stroke="#000" stroke-width="1.1891"/>
 <path d="m97.143 775.93c1.8031 17.85-1.8582 37.886 17.857 48.571-13.975 5.8852-49.665 8.151-10.714 22.857-16.197 23.81-18.266 47.619-13.571 71.429 52.569-3.3838 99.809 8.1545 142.86 31.429l29.286-2.8572-14.286-195 18.571 195c71.391-30.2 114.98-32.596 156.43-32.857-1.1143-23.436-1.1228-46.983-20.714-68.571 4.9666-5.9427 38.831-12.917-4.2857-17.143 7.7203-57.642-14.397-108.65-22.143-162.86l-263.57 8.5714z" fill="#0c0d0f" stroke="#000"/>
 <path d="m208.21 429.51-24.643 43.571c-14.803 7.9874-8.799 18.947 2.8571 30.714-31.41-1.5864-44.324 2.6072-15 20-40.954 22.674-89.252 46.378-25 54.286-0.45092 4.1854-3.1734 8.8252 0.71429 12.143-67.029 36.822-81.907 155.67-80.714 190.71 50.043 16.84 100.22 33.483 161.43 33.571 7.1172-33.977 16.461-67.212 29.286-99.286-11.234-36.416-10.092-74.123-8.2143-114.29 7.3851-11.69 24.91-31.83 37.5-47.857-10.779 15.959-29.77 33.327-37.5 48.214-3.1371 40.512-3.2221 78.56 10.357 115.36 10.112 33.921 17.98 65.6 24.286 95.714 52.437-0.37697 103.75-7.4887 154.29-19.286-14.832-67.346-34.473-132.29-75.714-186.43 42.997-0.0415 36.284-21.013 7.1428-51.429 16.738-6.119 39.53-12.043-0.71428-20 7.3576-1.1501 14.654-2.4016 16.429-12.857-7.4438-19.449 0.95167-42.857 1.4286-64.286z" fill="#d7a647" stroke="#000"/>
 <path d="m259.61 417.48 134.35 28.284-93.143 96.005z" fill="#f9f9f9" stroke="#000"/>
 <path d="m348.57 153.79-34.286 74.286c-7.4054-8.2112-14.974-13.389-24.286-14.286-14.43-1.3897-26.478 19.505-12.857 32.857 7.9297 7.7731 22.065 1.1011 34.286-4.2857-26.861 32.181-36.241 114.62-48.571 188.57l110.71 17.857 42.143-150.71c-21.638-8.7671-16.564-23.317-18.571-34.286 0.58709 14.75 3.0673 30.365 25.714 37.143 49.734 7.6396 41.699-19.036 27.143-34.286l-30-31.429 20-58.571z" fill="#f7b28b" stroke="#000"/>
 <path d="m325.77 428.59h-24.749c2.6399 11.053 4.7817 22.728 12.627 27.274l-39.451 49.578 10.565 48.978 28.422-29.275 16.122-66.25c7.9425-4.2687 16.794-2.632 22.223-23.234z" fill="#0d111a" stroke="#000"/>
 <path d="m407.86 200.22c-11.426-1.4451-34.286 4.2857-34.286 4.2857-5.8203 1.9637-19.91 15.521 2.8571 23.571 11.333 4.0075 21.663 1.211 32.857 0l14.286 10.714c23.069-3.6112 21.809-22.5 11.429-27.857 0 0-17.493-9.4938-27.143-10.714z" fill="#f2f2f2" stroke="#000"/>
 <path transform="matrix(.6831 0 0 .6831 494.34 140.64)" d="m-100 124.86a7.1429 9.6429 0 1 1 -1.8322 -6.4486l-5.3106 6.4486z" stroke="#030303"/>
 <path transform="matrix(.6831 0 0 .6831 473.9 134.93)" d="m-100 124.86a7.1429 9.6429 0 1 1 -1.8322 -6.4486l-5.3106 6.4486z" stroke="#030303"/>
 <path d="m398.57 278.08-60 19.286c-15.437 5.5934-10.916 14.325 7.8571 8.5714l22.857-2.8571c0.113 8.1126-0.74741 17.101 17.857 8.5714-3.7974 18.032-0.67057 24.734 16.429 8.5714 5 5.62 10 6.9595 15-0.71428 5.0562 3.0257 16.632 25.61 11.429-2.1429l-3.9286-16.071c-12.934-3.6223-24.056-8.2048-27.5-23.214z" fill="#010101" stroke="#000"/>
 <path d="m380 320.93-15.714 28.214-13.929-2.8572" fill="none" stroke="#a05a2c" stroke-width="2"/>
 <path d="m324.29 405.58c11.821 16.443 20.054 12.073 27.143 1.0714 9.2388 10.174 14.914 8.2312 14.643-13.929" fill="none" stroke="#a05a2c" stroke-width="2"/>
 <path d="m347.14 394.51-1.4286 3.9286c1.1022 7.6021 9.6589 7.302 11.071 0.71429" fill="none" stroke="#a05a2c" stroke-width="2"/>
 <path d="m378.57 175.93c-31.131 19.573-45.337 40.684-55.714 62.143l-8.2681-10.628 1.1253-18.658c-34.829-4.0051-5.2172-10.695 1.4286-16.429-16.294-5.6478-53.518-9.3021 5.7143-22.143l25.714-12.143z" fill="#010101" stroke="#000"/>
 <path d="m448.51 183.13c-1.7312-30.02 3.6119-61.327-11.617-88.893h-34.345c-8.5156-16.423-18.818-28.381-35.355-24.749-21.726 4.5524-26.164 15.347 0.50508 37.376-22.907 1.3876-51.417 1.4636-13.132 17.173-8.0264 8.3571-21.945 14.901-13.637 28.284-34.925-15.652-84.287-19.548-89.398-13.637 7.3818 16.484 66.102 27.658 109.6 40.406z" fill="#a18136" stroke="#000"/>
 <path d="m292.74 138.41c58.613 40.425 114.11 74.201 159.31 85.123 30.95 3.5807 54.279 1.0642 78.792-0.50508-27.611-8.8613-55.222-15.51-82.833-39.901-38.833-11.504-69.913-20.381-106.06-30.539-29.915-11.106-42.429-14.175-49.212-14.178z" fill="#a18136" stroke="#000"/>
 <path d="m337.5 151.29c-0.53937-10.153 3.4449-15.029 8.5714-18.571 76.632 4.6855 79.315 13.008 101.79 20.357l1.4286 30.714c-35.528-11.203-72.466-22.142-111.79-32.5z" fill="#3b2915" stroke="#000"/>
 <path d="m258.57 406.65c43.81 17.66 87.619 30.197 131.43 21.429l-4.2857 35.714-44.286-2.8571c1.253-12.164-4.7306-21.915-11.429-31.429-24.433 3.0217-31.093 14.93-40 25.714-20.554-7.2324-21.619-31.789-31.429-48.571z" fill="#f9f9f9" stroke="#000"/>
 <path d="m278.3 334.65c-44.634 7.7842-84.153 29.779-116.67 71.216 21.153 0.96854 42.563 1.0371 61.114 11.112-8.1201 3.7104-17.346 8.8032-30.81 19.193 42.707 22.362 72.612 55.098 89.806 104.32l2.1175 15.387c35.749-24.114 36.598-52.67 139.91-68.185-3.7999-10.102-10.361-20.203-22.223-30.305 19.19-8.6113 39.062-11.76 59.599-9.5964-20.203-21.555-40.406-61.264-60.609-92.429l-19.193 61.619 13.132-21.213c-31.056 51.197-70.767 104.12-108.09 156.57-0.077-50.08 3.3609-96.644-25.254-175.26l8.3517 25.723z" fill="#d7a647" stroke="#000"/>
 <path d="m532.14 613.79-105.71 18.571c-5.1247 16.729 0.67038 27.998 10.714 37.143l102.86-28.571z" fill="#381301" stroke="#000"/>
 <path d="m456.79 620.22h-0.35714v7.1428l22.857-2.8571-2.1428-14.286c0.65792 11.018 3.0449 20.019 15 17.857h7.1428v5c-23.734 3.3223-1.4022 27.425 0.71429 14.286 9.4468-0.39918 18.713-0.61808 30-2.8571l-8.5714-29.286 8.5714-0.71429c-9.3351-12.619-10.321-18.452-32.5-31.071z" fill="#f7b28b" stroke="#000"/>
 <path d="m528.57 645.22v18.571c-7.619 7.619-16.19 7.619-25.714 0-7.381 1.5897-14.762 6.5548-22.143-0.71428-4.2702 3.3797-7.8105 8.9496-15.714 1.4286l-2.1429-18.571c4.7619-3.12 9.5238-3.3085 14.286-0.71428 7.1429-15.047 14.286-2.5573 21.429-3.5714z" fill="#f7b28b" stroke="#000"/>
 <path d="m476.43 645.22 3.5714 17.857" fill="none" stroke="#000"/>
 <path d="m500 648.08 2.1429 17.143" fill="none" stroke="#000"/>
 <path d="m533.57 615.22 6.4286-0.71429 7.1429 23.571-6.4286 2.1429z" fill="#ecc742" stroke="#000"/>
 <path d="m539.29 606.65 10.714 38.571c69.289 2.0434 123.8-7.5253 166.43-26.429l-6.4286-42.143c-68.766-8.2478-126.7 0.16617-170.71 30z" fill="#9b9e83" stroke="#000"/>
 <path d="m539.29 605.93c85.98 18.654 131.78 0.34528 170.71-24.286" fill="none" stroke="#000"/>
 <path d="m561.43 603.79c24.881-7.8031 39.713-16.52 104.29-20.714 10.943-0.46673 19.392 1.5608 28.571 2.8571-29.567 15.152-72.821 21.749-132.86 17.857z" fill="#81babf" filter="url(#b)" stroke="#000"/>
 <path d="m82.58 927.86c6.9429-5.6863 49.881-4.7527 75.341-4.5457l-7.8554 5.5558c-19.043-2.6741-48.442-2.2256-67.485-1.0102z" fill="#e6e6e6" filter="url(#a)" stroke="#000" stroke-width="1.1891"/>
 <path d="m362.86 659.15c7.4693 14.653 16.176 28.894 18.214 45.357-28.607 10.619-57.654 6.9256-83.571 6.7857l-6.4286-54.286z" fill="#c9973f" stroke="#000"/>
 <path d="m295.36 630.58 62.5-0.35714 10.714 33.929-72.143 1.4286z" fill="#c5923d" stroke="#000"/>
 <path d="m133.34 569.51c11.112 3.3672 12.969 10.848 33.335 10.102 26.443 11.649 48.679 10.676 72.731 15.152l4.0406-12.122 15.152 4.0406 4.0406-5.0508 22.223 4.0406 8.0812 16.162 71.721 6.0609-71.721 2.0203 19.193 75.761c-10.131 11.27-21.52 14.993-34.345 10.102-1.2486-28.165-0.78158-57.188-7.0711-82.832l-24.244 4.0406-15.152 119.2c-10.54 11.274-24.285 6.5291-37.376 5.0508 13.616-43.52 28.272-82.881 39.396-136.37l-87.883-14.142v-11.112z" fill="#b1822d" stroke="#000"/>
 <path d="m259.61 587.69c7.9328 4.5258 11.256 13.661 11.112 26.264" fill="none" stroke="#000"/>
 <path d="m241.43 589.71c3.5964 8.7546 6.1649 17.509 7.0711 26.264" fill="none" stroke="#000"/>
 <path d="m153.21 570.93c2.4174 4.2465 9.8882 7.7711 18.929 11.071" fill="none" stroke="#000"/>
 <path d="m137.14 642.36c-7.7657 14.465-12.707 30.06-15.714 46.429 22.801 11.68 52.957 11.103 81.071 13.929 3.3215-21.786 10.075-43.571 17.143-65.357z" fill="#c9973f" stroke="#000"/>
 <path d="m150.36 614.51c-12.086 8.2332-15.535 19.345-19.286 30.357 23.451 9.2163 50.762 12.258 78.929 13.929 0.78362-6.9048 0.22803-13.81 6.4286-20.714l5.3571-10.714c-27.573-2.8745-51.475-7.1256-71.429-12.857z" fill="#c5923d" stroke="#000"/>
 <path transform="translate(-3.2143 .35714)" d="m189.29 641.83a7.8571 6.9643 0 1 1 -15.714 0 7.8571 6.9643 0 1 1 15.714 0z" fill="#a77e34" stroke="#a05a2c" stroke-width="2"/>
 <path transform="translate(150.71 12.321)" d="m189.29 641.83a7.8571 6.9643 0 1 1 -15.714 0 7.8571 6.9643 0 1 1 15.714 0z" fill="#a77e34" stroke="#a05a2c" stroke-width="2"/>
 <path transform="translate(150 -66.25)" d="m189.29 641.83a7.8571 6.9643 0 1 1 -15.714 0 7.8571 6.9643 0 1 1 15.714 0z" fill="#a77e34" stroke="#a05a2c" stroke-width="2"/>
 <path transform="translate(157.86 -115.54)" d="m189.29 641.83a7.8571 6.9643 0 1 1 -15.714 0 7.8571 6.9643 0 1 1 15.714 0z" fill="#a77e34" stroke="#a05a2c" stroke-width="2"/>
 <path transform="translate(62.5 -128.04)" d="m189.29 641.83a7.8571 6.9643 0 1 1 -15.714 0 7.8571 6.9643 0 1 1 15.714 0z" fill="#a77e34" stroke="#a05a2c" stroke-width="2"/>
 <path transform="translate(47.143 -84.821)" d="m189.29 641.83a7.8571 6.9643 0 1 1 -15.714 0 7.8571 6.9643 0 1 1 15.714 0z" fill="#a77e34" stroke="#a05a2c" stroke-width="2"/>
 <path transform="translate(265 -37.679)" d="m189.29 641.83a7.8571 6.9643 0 1 1 -15.714 0 7.8571 6.9643 0 1 1 15.714 0z" fill="#a77e34" stroke="#a05a2c" stroke-width="2"/>
 <path d="m491.43 575.58c-18.973 13.138-29.725 31.892-42.5 48.571l7.8571 1.4286c16.003-18.497 32.059-28.497 47.143-39.643-4.1876-5.8705-1.515-8.0546-12.5-10.357z" fill="#b1822d" stroke="#000"/>
 <path d="m397.86 565.58c6.5476-6.2211 13.095-6.8745 19.643-8.5714-7.1576 3.946-13.821 7.9743-15.357 12.857 1.381 4.3334 3.7703 2.6162 6.0714 1.4286" fill="none" stroke="#c5923d"/>
</svg>
